<?xml version="1.0" ?>
<!DOCTYPE svg  PUBLIC '-//W3C//DTD SVG 1.1//EN'  'http://www.w3.org/Graphics/SVG/1.1/DTD/svg11.dtd'>
<!-- Uploaded to: SVG Repo, www.svgrepo.com, Generator: SVG Repo Mixer Tools -->
<svg fill="#000000" width="800px" height="800px" viewBox="0 0 512 512" version="1.1" xml:space="preserve" xmlns="http://www.w3.org/2000/svg" xmlns:xlink="http://www.w3.org/1999/xlink">
<g id="_x36_26_x2C__Celebration_x2C__firework_x2C__party">
<g>
<g>
<g>
<g>
<path d="M316.348,400.956h-140c-5.523,0-10-4.478-10-10v-220c0-5.523,4.477-10,10-10h140c5.522,0,10,4.477,10,10v220       C326.348,396.479,321.87,400.956,316.348,400.956z M186.347,380.956h120v-200h-120V380.956z"/>
</g>
<g>
<path d="M366.348,180.957h-240c-3.844,0-7.348-2.204-9.013-5.668c-1.665-3.465-1.197-7.577,1.205-10.579l120-150       c1.897-2.372,4.771-3.753,7.809-3.753c3.038,0,5.911,1.381,7.809,3.753l120,150c2.401,3.002,2.869,7.114,1.204,10.579       C373.695,178.753,370.191,180.957,366.348,180.957z M147.153,160.957h198.388L246.347,36.964L147.153,160.957z"/>
</g>
<g>
<path d="M246.347,500.956c-5.523,0-10-4.478-10-10v-100c0-5.522,4.477-10,10-10s10,4.478,10,10v100       C256.347,496.479,251.87,500.956,246.347,500.956z"/>
</g>
<g>
<path d="M176.355,250.959c-3.668,0-7.2-2.026-8.952-5.53c-2.47-4.94-0.468-10.947,4.472-13.417l140.001-70       c4.936-2.47,10.946-0.468,13.416,4.472c2.47,4.94,0.468,10.947-4.473,13.417l-140,70       C179.384,250.619,177.857,250.959,176.355,250.959z"/>
</g>
<g>
<path d="M176.355,300.958c-3.668,0-7.2-2.025-8.952-5.53c-2.47-4.939-0.468-10.946,4.472-13.416l140.001-70       c4.936-2.471,10.946-0.468,13.416,4.472c2.47,4.94,0.468,10.947-4.473,13.417l-140,70       C179.384,300.618,177.857,300.958,176.355,300.958z"/>
</g>
<g>
<path d="M176.355,350.958c-3.668,0-7.2-2.025-8.952-5.53c-2.47-4.939-0.468-10.946,4.472-13.416l140.001-70       c4.936-2.471,10.946-0.468,13.416,4.473c2.47,4.939,0.468,10.946-4.473,13.416l-140,70       C179.384,350.618,177.857,350.958,176.355,350.958z"/>
</g>
<g>
<path d="M176.355,400.958c-3.668,0-7.2-2.025-8.952-5.53c-2.47-4.939-0.468-10.946,4.472-13.416l140.001-70       c4.936-2.471,10.946-0.468,13.416,4.473c2.47,4.939,0.468,10.946-4.473,13.416l-140,70       C179.384,400.618,177.857,400.958,176.355,400.958z"/>
</g>
<g>
<path d="M336.344,460.959c-1.264,0-2.547-0.241-3.788-0.75c-46.444-19.035-46.238-67.359-46.207-69.407       c0.084-5.469,4.545-9.846,9.996-9.846c0.052,0,0.104,0,0.157,0.001c5.509,0.085,9.908,4.608,9.845,10.112       c-0.009,1.555,0.186,36.86,33.793,50.634c5.11,2.095,7.556,7.935,5.461,13.045       C344.015,458.617,340.281,460.958,336.344,460.959z"/>
</g>
<g>
<path d="M336.348,430.956c-5.522,0-10-4.478-10-10v-10c0-5.522,4.478-10,10-10s10,4.478,10,10v10       C346.348,426.479,341.87,430.956,336.348,430.956z"/>
</g>
<g>
<path d="M356.355,440.958c-3.669,0-7.2-2.025-8.952-5.53c-2.47-4.939-0.468-10.946,4.473-13.416l20-10       c4.937-2.471,10.945-0.469,13.416,4.473c2.47,4.939,0.468,10.946-4.473,13.416l-20,10       C359.385,440.618,357.858,440.958,356.355,440.958z"/>
</g>
<g>
<path d="M386.348,460.956h-20c-5.522,0-10-4.478-10-10s4.478-10,10-10h20c5.522,0,10,4.478,10,10       S391.87,460.956,386.348,460.956z"/>
</g>
<g>
<path d="M336.348,500.956c-5.522,0-10-4.478-10-10v-10c0-5.522,4.478-10,10-10s10,4.478,10,10v10       C346.348,496.479,341.87,500.956,336.348,500.956z"/>
</g>
<g>
<path d="M376.34,490.958c-1.503,0-3.028-0.34-4.464-1.058l-20-10c-4.94-2.47-6.942-8.477-4.473-13.416       c2.47-4.941,8.477-6.943,13.416-4.473l20,10c4.94,2.47,6.942,8.477,4.473,13.416       C383.54,488.933,380.008,490.958,376.34,490.958z"/>
</g>
<g>
<path d="M296.355,490.958c-3.669,0-7.2-2.025-8.952-5.53c-2.47-4.939-0.468-10.946,4.473-13.416l20-10       c4.936-2.471,10.946-0.468,13.416,4.473c2.47,4.939,0.468,10.946-4.473,13.416l-20,10       C299.385,490.618,297.858,490.958,296.355,490.958z"/>
</g>
</g>
</g>
</g>
</g>
<g id="Layer_1"/>
</svg>