<?xml version="1.0" encoding="iso-8859-1"?>
<!-- Uploaded to: SVG Repo, www.svgrepo.com, Generator: SVG Repo Mixer Tools -->
<svg fill="#000000" height="800px" width="800px" version="1.1" id="Layer_1" xmlns="http://www.w3.org/2000/svg" xmlns:xlink="http://www.w3.org/1999/xlink" 
	 viewBox="0 0 511.999 511.999" xml:space="preserve">
<g>
	<g>
		<path d="M479.038,115.652c-5.324-25.143-19.133-43.012-29.904-53.664C469.495,34.187,465.064,1.596,464.83,0l-30.997,4.528
			c0.036,0.249,2.71,22.038-10.473,39.559c-13.617-6.112-37.626-13.594-65.688-7.79c-32.277,6.677-60.548,28.631-84.031,65.255
			l-7.286,11.364l10.165,8.883c0.733,0.641,11.362,9.717,27.812,13.299c-27.398,31.777-64.087,56.308-111.864,74.835
			c-50.091,19.424-101.705,42.008-134.077,85.263c-18.374,24.551-28.194,56.269-27.653,89.31
			c0.555,33.919,12.109,65.153,32.533,87.948c18.99,21.195,44.15,34.448,72.763,38.325c6.017,0.816,12.185,1.22,18.463,1.22
			c19.779,0,40.653-4.019,61.314-11.881c59.401-22.607,99.057-80.296,130.015-133.748c25.328-43.731,47.586-93.052,70.038-155.196
			c8.394,8.75,16.727,12.792,17.387,13.104l12.217,5.758l7.492-11.238C477.092,182.6,485.866,147.897,479.038,115.652z
			 M386.507,200.245c-21.838,60.483-43.378,108.281-67.788,150.426c-28.203,48.694-63.807,101.049-114.05,120.171
			c-22.598,8.599-79.339,23.934-118.066-19.29c-31.336-34.975-32.77-97.981-3.129-137.585
			c27.407-36.621,74.468-57.045,120.323-74.827c52.545-20.375,93.218-47.67,123.987-83.257c0.132,0.925,0.281,1.85,0.439,2.774
			c0.036,0.21,0.072,0.419,0.11,0.629c0.177,1.002,0.368,2.003,0.58,3c0.017,0.08,0.037,0.16,0.053,0.239
			c0.203,0.942,0.424,1.881,0.658,2.814c0.047,0.187,0.092,0.374,0.14,0.56c0.25,0.967,0.518,1.929,0.805,2.883
			c0.055,0.186,0.115,0.37,0.172,0.554c0.285,0.922,0.584,1.838,0.905,2.743c0.026,0.073,0.049,0.148,0.076,0.221
			c0.339,0.946,0.705,1.878,1.086,2.804c0.081,0.197,0.163,0.394,0.246,0.59c0.387,0.913,0.793,1.816,1.224,2.703
			c0.061,0.123,0.124,0.244,0.186,0.368c0.404,0.817,0.829,1.621,1.273,2.412c0.085,0.15,0.165,0.303,0.251,0.452
			c0.484,0.845,0.994,1.672,1.526,2.483c0.113,0.172,0.229,0.342,0.344,0.514c0.559,0.83,1.134,1.648,1.746,2.438l3.317,4.289
			l5.259,1.32c0.015,0.003,0.028,0.006,0.043,0.009c0.768,0.192,1.542,0.357,2.32,0.509c0.167,0.032,0.333,0.066,0.501,0.097
			c0.772,0.142,1.547,0.266,2.326,0.371c0.135,0.018,0.27,0.032,0.405,0.049c0.739,0.093,1.482,0.17,2.227,0.231
			c0.097,0.008,0.193,0.019,0.29,0.026c0.802,0.061,1.606,0.1,2.413,0.126c0.162,0.005,0.324,0.009,0.486,0.013
			c0.814,0.019,1.629,0.025,2.447,0.01c0.054-0.001,0.108-0.004,0.162-0.005c0.789-0.017,1.579-0.05,2.37-0.096
			c0.14-0.008,0.28-0.015,0.42-0.024c0.81-0.052,1.62-0.119,2.43-0.201c0.144-0.015,0.289-0.031,0.433-0.046
			c0.803-0.086,1.605-0.181,2.407-0.292c0.034-0.005,0.069-0.008,0.103-0.014c0.826-0.116,1.651-0.25,2.474-0.392
			c0.159-0.027,0.317-0.055,0.476-0.083c0.807-0.144,1.613-0.299,2.416-0.467c0.105-0.022,0.211-0.046,0.316-0.068
			c0.753-0.16,1.504-0.33,2.252-0.508c0.119-0.028,0.238-0.055,0.356-0.085c0.793-0.192,1.581-0.396,2.366-0.607
			c0.162-0.044,0.323-0.088,0.483-0.132c0.797-0.218,1.59-0.443,2.378-0.68c0.016-0.004,0.03-0.009,0.046-0.014
			c0.779-0.234,1.551-0.477,2.319-0.727c0.156-0.05,0.312-0.1,0.468-0.151c0.754-0.247,1.503-0.501,2.245-0.762
			c0.139-0.049,0.276-0.098,0.414-0.147c0.695-0.246,1.386-0.498,2.07-0.754c0.065-0.024,0.132-0.047,0.196-0.071
			C389.5,192.255,387.867,196.476,386.507,200.245z M435.873,186.517c-3.013-4.01-5.649-9.374-6.332-16.258
			c-0.309-3.115-0.227-6.418,0.244-9.814l4.89-35.236l-29.292,20.186c-8.895,6.13-29.496,17.104-43.821,17.454
			c-5.377-13.22-3.618-36.529-1.599-47.151l6.744-34.926l-30.317,18.607c-1.385,0.85-2.807,1.624-4.226,2.3
			c-8.548,4.074-16.18,4.039-22.147,2.641c16.172-20.604,34.147-33.115,53.586-37.26c29.434-6.277,53.49,8.929,54.252,9.419
			l0.298,0.194c0.238,0.15,23.983,15.933,30.237,45.468C452.535,141.703,448.324,163.301,435.873,186.517z"/>
	</g>
</g>
<g>
	<g>
		<path d="M170.018,319.491l-9.314-29.91c-39.143,12.191-57.424,38.246-65.866,57.956c-8.893,20.762-8.865,38.517-8.833,40.473
			l31.321-0.519C117.318,386.978,117.088,335.975,170.018,319.491z"/>
	</g>
</g>
</svg>